<svg width="400" height="423" viewBox="0 0 400 423" fill="none" xmlns="http://www.w3.org/2000/svg">
<path d="M232.093 87.2698C236.597 86.7068 240.538 87.9735 243.915 91.0699C247.293 93.8848 248.982 97.6848 248.982 102.47C248.982 106.974 247.293 110.915 243.915 114.293C240.538 117.389 236.597 118.656 232.093 118.093C229.278 117.53 226.322 117.107 223.226 116.826C220.411 116.544 217.456 116.263 214.359 115.981H213.515C211.544 115.981 210.559 117.107 210.559 119.359V294.162C210.559 305.985 208.589 318.652 204.648 332.163C200.707 345.956 194.655 358.904 186.492 371.008C178.329 383.112 167.773 392.964 154.825 400.564C142.158 408.446 126.817 412.387 108.802 412.387C92.4756 412.387 78.542 409.713 67.001 404.364C55.4601 399.016 45.8895 391.698 38.2894 382.408C33.7856 377.06 30.4078 371.43 28.1559 365.519C26.1855 359.608 25.2003 353.978 25.2003 348.63C25.2003 340.467 27.4522 333.43 31.956 327.519C36.4597 321.889 42.9339 319.074 51.3785 319.074C59.5416 319.074 65.8751 321.748 70.3789 327.096C75.1641 332.726 77.5568 338.919 77.5568 345.674C77.5568 353.275 74.6012 359.608 68.69 364.675C66.7195 366.645 66.2973 368.334 67.4233 369.742C70.8011 374.527 75.7271 378.186 82.2013 380.72C88.6755 383.253 97.5423 384.52 108.802 384.52C120.906 384.52 131.321 381.845 140.047 376.497C149.054 371.149 156.373 363.971 162.003 354.964C167.632 346.237 171.855 336.526 174.67 325.83C177.485 315.133 178.892 304.577 178.892 294.162V284.029C178.892 282.34 178.47 281.355 177.625 281.073C176.781 280.51 175.655 280.792 174.247 281.918C166.647 289.518 157.921 295.57 148.069 300.074C138.499 304.577 127.943 306.829 116.402 306.829C98.6683 306.829 83.0458 303.592 69.5344 297.118C56.3045 290.644 45.1858 282.199 36.1783 271.784C27.4522 261.088 20.8372 249.265 16.3335 236.317C12.1112 223.087 10 209.998 10 197.05C10 184.383 12.1112 171.575 16.3335 158.627C20.5557 145.678 26.7485 133.856 34.9116 123.159C43.3562 112.181 54.0527 103.455 67.001 96.9811C79.9494 90.5069 95.0089 87.2698 112.18 87.2698C125.41 87.2698 137.091 89.3809 147.225 93.6032C157.358 97.8255 166.366 103.596 174.247 110.915C175.092 111.759 175.936 112.181 176.781 112.181C178.188 112.181 178.892 111.196 178.892 109.226V105.848C178.892 101.344 180.44 97.5441 183.536 94.4477C186.633 91.3514 190.433 89.8032 194.937 89.8032H210.559C211.404 89.8032 213.374 89.6625 216.47 89.381C219.848 88.818 223.085 88.3958 226.182 88.1143C229.278 87.5513 231.248 87.2698 232.093 87.2698ZM115.98 276.007C130.054 276.007 142.158 273.332 152.291 267.984C162.706 262.636 171.01 255.88 177.203 247.717C178.329 246.31 178.892 244.762 178.892 243.073V148.915C178.892 147.226 178.329 145.678 177.203 144.271C169.321 135.826 160.032 129.211 149.336 124.426C138.639 119.641 127.38 117.248 115.557 117.248C100.92 117.248 88.1125 120.767 77.1346 127.804C66.4381 134.841 57.9935 144.412 51.8008 156.516C45.8895 168.338 42.9339 181.709 42.9339 196.627C42.9339 211.265 46.0303 224.635 52.223 236.739C58.6972 248.843 67.4233 258.414 78.4012 265.451C89.6607 272.488 102.187 276.007 115.98 276.007Z" fill="#F6A961"/>
<path d="M167.907 87.2698C163.403 86.7068 159.462 87.9735 156.085 91.0699C152.707 93.8848 151.018 97.6848 151.018 102.47C151.018 106.974 152.707 110.915 156.085 114.293C159.462 117.389 163.403 118.656 167.907 118.093C170.722 117.53 173.678 117.107 176.774 116.826C179.589 116.544 182.544 116.263 185.641 115.981H186.485C188.456 115.981 189.441 117.107 189.441 119.359V294.162C189.441 305.985 191.411 318.652 195.352 332.163C199.293 345.956 205.345 358.904 213.508 371.008C221.671 383.112 232.227 392.964 245.175 400.564C257.842 408.446 273.183 412.387 291.198 412.387C307.524 412.387 321.458 409.713 332.999 404.364C344.54 399.016 354.11 391.698 361.711 382.408C366.214 377.06 369.592 371.43 371.844 365.519C373.815 359.608 374.8 353.978 374.8 348.63C374.8 340.467 372.548 333.43 368.044 327.519C363.54 321.889 357.066 319.074 348.621 319.074C340.458 319.074 334.125 321.748 329.621 327.096C324.836 332.726 322.443 338.919 322.443 345.674C322.443 353.275 325.399 359.608 331.31 364.675C333.28 366.645 333.703 368.334 332.577 369.742C329.199 374.527 324.273 378.186 317.799 380.72C311.325 383.253 302.458 384.52 291.198 384.52C279.094 384.52 268.679 381.845 259.953 376.497C250.946 371.149 243.627 363.971 237.997 354.964C232.368 346.237 228.145 336.526 225.33 325.83C222.515 315.133 221.108 304.577 221.108 294.162V284.029C221.108 282.34 221.53 281.355 222.375 281.073C223.219 280.51 224.345 280.792 225.753 281.918C233.353 289.518 242.079 295.57 251.931 300.074C261.501 304.577 272.057 306.829 283.598 306.829C301.332 306.829 316.954 303.592 330.466 297.118C343.695 290.644 354.814 282.199 363.822 271.784C372.548 261.088 379.163 249.265 383.667 236.317C387.889 223.087 390 209.998 390 197.05C390 184.383 387.889 171.575 383.667 158.627C379.444 145.678 373.252 133.856 365.088 123.159C356.644 112.181 345.947 103.455 332.999 96.9811C320.051 90.5069 304.991 87.2698 287.82 87.2698C274.59 87.2698 262.909 89.3809 252.775 93.6032C242.642 97.8255 233.634 103.596 225.753 110.915C224.908 111.759 224.064 112.181 223.219 112.181C221.812 112.181 221.108 111.196 221.108 109.226V105.848C221.108 101.344 219.56 97.5441 216.464 94.4477C213.367 91.3514 209.567 89.8032 205.063 89.8032H189.441C188.596 89.8032 186.626 89.6625 183.53 89.381C180.152 88.818 176.915 88.3958 173.818 88.1143C170.722 87.5513 168.752 87.2698 167.907 87.2698ZM284.02 276.007C269.946 276.007 257.842 273.332 247.709 267.984C237.294 262.636 228.99 255.88 222.797 247.717C221.671 246.31 221.108 244.762 221.108 243.073V148.915C221.108 147.226 221.671 145.678 222.797 144.271C230.679 135.826 239.968 129.211 250.664 124.426C261.361 119.641 272.62 117.248 284.443 117.248C299.08 117.248 311.887 120.767 322.865 127.804C333.562 134.841 342.007 144.412 348.199 156.516C354.11 168.338 357.066 181.709 357.066 196.627C357.066 211.265 353.97 224.635 347.777 236.739C341.303 248.843 332.577 258.414 321.599 265.451C310.339 272.488 297.813 276.007 284.02 276.007Z" fill="#F7A961"/>
<path d="M198.172 66.5788C190.29 66.5788 183.534 63.7639 177.905 58.1342C172.556 52.786 169.882 46.171 169.882 38.2894C169.882 30.4078 172.556 23.7928 177.905 18.4446C183.534 12.8149 190.29 10 198.172 10C206.053 10 212.668 12.8149 218.017 18.4446C223.646 23.7928 226.461 30.4078 226.461 38.2894C226.461 46.171 223.646 52.786 218.017 58.1342C212.668 63.7639 206.053 66.5788 198.172 66.5788Z" fill="#F6A961"/>
</svg>
