<svg width="34" height="34" viewBox="0 0 34 34" fill="none" xmlns="http://www.w3.org/2000/svg">
<g filter="url(#filter0_i_27_6)">
<path d="M15.145 17.6988C15.145 18.0375 15.1524 18.2879 15.1671 18.45C15.1966 18.6267 15.2628 18.8255 15.366 19.0465C15.5722 19.4294 16.1466 19.6209 17.0892 19.6209C17.7962 19.6209 18.297 19.4957 18.5915 19.2453C18.8419 19.0391 18.9745 18.7224 18.9892 18.2953C19.0039 18.148 19.0113 17.9344 19.0113 17.6546V9.92202C19.0113 9.58326 18.9966 9.32551 18.9671 9.14876C18.9524 8.98675 18.8861 8.79527 18.7683 8.57434C18.5768 8.19139 18.0098 7.99992 17.0671 7.99992C16.1392 7.99992 15.5722 8.19876 15.366 8.59643C15.2628 8.81736 15.1966 9.00884 15.1671 9.17086C15.1524 9.33287 15.145 9.59062 15.145 9.94411V17.6988ZM18.7683 21.786C18.6652 21.5798 18.4737 21.4325 18.1939 21.3441C17.914 21.2558 17.5384 21.2116 17.0671 21.2116C16.6105 21.2116 16.2423 21.2558 15.9625 21.3441C15.6826 21.4325 15.4838 21.5872 15.366 21.8081C15.2628 22.029 15.1966 22.2205 15.1671 22.3825C15.1524 22.5593 15.145 22.817 15.145 23.1558C15.145 23.4945 15.1524 23.7449 15.1671 23.9069C15.1966 24.0837 15.2628 24.2752 15.366 24.4814C15.5722 24.879 16.1466 25.0779 17.0892 25.0779C18.0171 25.0779 18.5768 24.879 18.7683 24.4814C18.8861 24.2604 18.9524 24.0616 18.9671 23.8849C18.9966 23.7228 19.0113 23.4724 19.0113 23.1337C19.0113 22.7949 18.9966 22.5372 18.9671 22.3604C18.9524 22.1984 18.8861 22.0069 18.7683 21.786Z" fill="#FFBA06"/>
</g>
<g filter="url(#filter1_i_27_6)">
<path d="M9.71049 19.7976C9.1508 20.5341 8.25971 20.9023 7.03723 20.9023C5.81474 20.9023 4.6659 20.3426 3.5907 19.2232C2.53023 18.0891 2 16.7709 2 15.2686C2 13.7662 2.5376 12.448 3.6128 11.3139C4.68799 10.1798 5.86629 9.61273 7.14769 9.61273C7.64847 9.61273 8.10506 9.70847 8.51746 9.89994C8.92987 10.0767 9.20971 10.2461 9.357 10.4081C9.51902 10.5554 9.64421 10.6953 9.73258 10.8278C9.77677 10.4154 9.92406 10.1061 10.1744 9.89994C10.4396 9.67901 10.8593 9.56854 11.4337 9.56854C12.0082 9.56854 12.4279 9.61273 12.6931 9.7011C12.9582 9.78947 13.1423 9.94413 13.2454 10.1651C13.3632 10.3713 13.4295 10.5554 13.4442 10.7174C13.4737 10.8794 13.4884 11.1298 13.4884 11.4685V20.6151C13.4884 22.3089 12.8993 23.6713 11.721 24.7023C10.5427 25.748 9.21708 26.2709 7.7442 26.2709C6.62482 26.2709 5.55699 25.9984 4.54071 25.4535C3.52442 24.9085 3.01628 24.4151 3.01628 23.9732C3.01628 23.3988 3.23721 22.8907 3.67907 22.4488C3.95892 22.1395 4.17249 21.9259 4.31977 21.8081C4.48179 21.6903 4.6659 21.6314 4.8721 21.6314C5.0783 21.6314 5.29187 21.7197 5.5128 21.8965C6.21978 22.4415 6.98567 22.7139 7.81048 22.7139C8.37017 22.7139 8.82677 22.493 9.18026 22.0511C9.53374 21.6093 9.71049 21.079 9.71049 20.4604V19.7976ZM5.77792 15.2907C5.77792 15.762 5.96203 16.1891 6.33025 16.5721C6.71319 16.955 7.16978 17.1465 7.70002 17.1465C8.24498 17.1465 8.69421 16.955 9.0477 16.5721C9.40119 16.1744 9.57793 15.7472 9.57793 15.2907C9.57793 14.8193 9.40855 14.3848 9.06979 13.9872C8.73103 13.5748 8.27444 13.3686 7.70002 13.3686C7.1256 13.3686 6.66164 13.5674 6.30815 13.9651C5.95466 14.3627 5.77792 14.8046 5.77792 15.2907Z" fill="#FFBA06"/>
<path d="M28.2221 19.7976C27.6624 20.5341 26.7713 20.9023 25.5488 20.9023C24.3263 20.9023 23.1775 20.3426 22.1023 19.2232C21.0418 18.0891 20.5116 16.7709 20.5116 15.2686C20.5116 13.7662 21.0492 12.448 22.1244 11.3139C23.1996 10.1798 24.3779 9.61273 25.6593 9.61273C26.1601 9.61273 26.6167 9.70847 27.0291 9.89994C27.4415 10.0767 27.7213 10.2461 27.8686 10.4081C28.0306 10.5554 28.1558 10.6953 28.2442 10.8278C28.2884 10.4154 28.4356 10.1061 28.686 9.89994C28.9512 9.67901 29.3709 9.56854 29.9453 9.56854C30.5198 9.56854 30.9395 9.61273 31.2046 9.7011C31.4698 9.78947 31.6539 9.94413 31.757 10.1651C31.8748 10.3713 31.9411 10.5554 31.9558 10.7174C31.9853 10.8794 32 11.1298 32 11.4685V20.6151C32 22.3089 31.4109 23.6713 30.2326 24.7023C29.0543 25.748 27.7287 26.2709 26.2558 26.2709C25.1364 26.2709 24.0686 25.9984 23.0523 25.4535C22.036 24.9085 21.5279 24.4151 21.5279 23.9732C21.5279 23.3988 21.7488 22.8907 22.1907 22.4488C22.4705 22.1395 22.6841 21.9259 22.8314 21.8081C22.9934 21.6903 23.1775 21.6314 23.3837 21.6314C23.5899 21.6314 23.8035 21.7197 24.0244 21.8965C24.7314 22.4415 25.4973 22.7139 26.3221 22.7139C26.8818 22.7139 27.3384 22.493 27.6918 22.0511C28.0453 21.6093 28.2221 21.079 28.2221 20.4604V19.7976ZM24.2895 15.2907C24.2895 15.762 24.4736 16.1891 24.8418 16.5721C25.2248 16.955 25.6814 17.1465 26.2116 17.1465C26.7566 17.1465 27.2058 16.955 27.5593 16.5721C27.9128 16.1744 28.0895 15.7472 28.0895 15.2907C28.0895 14.8193 27.9201 14.3848 27.5814 13.9872C27.2426 13.5748 26.786 13.3686 26.2116 13.3686C25.6372 13.3686 25.1732 13.5674 24.8197 13.9651C24.4663 14.3627 24.2895 14.8046 24.2895 15.2907Z" fill="#FFBA06"/>
</g>
<defs>
<filter id="filter0_i_27_6" x="15.145" y="7.99994" width="8.86621" height="18.0779" filterUnits="userSpaceOnUse" color-interpolation-filters="sRGB">
<feFlood flood-opacity="0" result="BackgroundImageFix"/>
<feBlend mode="normal" in="SourceGraphic" in2="BackgroundImageFix" result="shape"/>
<feColorMatrix in="SourceAlpha" type="matrix" values="0 0 0 0 0 0 0 0 0 0 0 0 0 0 0 0 0 0 127 0" result="hardAlpha"/>
<feOffset dx="5" dy="1"/>
<feGaussianBlur stdDeviation="6.5"/>
<feComposite in2="hardAlpha" operator="arithmetic" k2="-1" k3="1"/>
<feColorMatrix type="matrix" values="0 0 0 0 0.905882 0 0 0 0 0.364706 0 0 0 0 0.0196078 0 0 0 1 0"/>
<feBlend mode="normal" in2="shape" result="effect1_innerShadow_27_6"/>
</filter>
<filter id="filter1_i_27_6" x="2" y="9.56854" width="35" height="17.7024" filterUnits="userSpaceOnUse" color-interpolation-filters="sRGB">
<feFlood flood-opacity="0" result="BackgroundImageFix"/>
<feBlend mode="normal" in="SourceGraphic" in2="BackgroundImageFix" result="shape"/>
<feColorMatrix in="SourceAlpha" type="matrix" values="0 0 0 0 0 0 0 0 0 0 0 0 0 0 0 0 0 0 127 0" result="hardAlpha"/>
<feOffset dx="5" dy="1"/>
<feGaussianBlur stdDeviation="6.5"/>
<feComposite in2="hardAlpha" operator="arithmetic" k2="-1" k3="1"/>
<feColorMatrix type="matrix" values="0 0 0 0 0.905882 0 0 0 0 0.364706 0 0 0 0 0.0196078 0 0 0 1 0"/>
<feBlend mode="normal" in2="shape" result="effect1_innerShadow_27_6"/>
</filter>
</defs>
</svg>
